<?xml version="1.0" encoding="UTF-8"?>
<!DOCTYPE svg PUBLIC "-//W3C//DTD SVG 1.1//EN" "http://www.w3.org/Graphics/SVG/1.1/DTD/svg11.dtd">
<svg version="1.1" xmlns="http://www.w3.org/2000/svg" xmlns:xlink="http://www.w3.org/1999/xlink" x="0" y="0" width="1024" height="768" viewBox="0, 0, 1024, 768">
  <g id="Capa_1">
    <path d="M512,746 C432.03,746 367.2,583.927 367.2,384 C367.2,184.073 432.03,22 512,22 C591.972,22 656.8,184.073 656.8,384 C656.8,583.927 591.972,746 512,746 z" fill-opacity="0" stroke="#FFFFFF" stroke-width="35"/>
    <path d="M767.972,639.972 C711.426,696.521 550.981,627.759 409.61,486.39 C268.241,345.019 199.479,184.576 256.028,128.028 C312.576,71.479 473.019,140.241 614.39,281.61 C755.759,422.981 824.521,583.424 767.972,639.972 z" fill-opacity="0" stroke="#FFFFFF" stroke-width="35"/>
    <path d="M256.028,639.972 C199.479,583.424 268.241,422.981 409.61,281.61 C550.981,140.241 711.424,71.479 767.972,128.028 C824.521,184.576 755.759,345.019 614.39,486.39 C473.019,627.759 312.576,696.521 256.028,639.972 z" fill-opacity="0" stroke="#FFFFFF" stroke-width="35"/>
    <path d="M150,384 C150,304.03 312.073,239.2 512,239.2 C711.927,239.2 874,304.03 874,384 C874,463.97 711.927,528.8 512,528.8 C312.073,528.8 150,463.97 150,384 z" fill-opacity="0" stroke="#FFFFFF" stroke-width="35"/>
  </g>
</svg>
