<?xml version="1.0" encoding="UTF-8"?>
<!DOCTYPE svg PUBLIC "-//W3C//DTD SVG 1.1//EN" "http://www.w3.org/Graphics/SVG/1.1/DTD/svg11.dtd">
<svg version="1.1" xmlns="http://www.w3.org/2000/svg" xmlns:xlink="http://www.w3.org/1999/xlink" x="0" y="0" width="1024" height="768" viewBox="0, 0, 1024, 768">
  <g id="Capa_1">
    <g>
      <g>
        <path d="M572.091,265.065 C589.497,247.658 617.72,247.658 635.126,265.065" fill-opacity="0" stroke="#FFFFFF" stroke-width="33"/>
        <path d="M698.272,201.92 C715.679,219.327 715.679,247.549 698.272,264.956" fill-opacity="0" stroke="#FFFFFF" stroke-width="33"/>
        <path d="M698.272,264.956 C680.865,282.363 652.643,282.363 635.236,264.956" fill-opacity="0" stroke="#FFFFFF" stroke-width="33"/>
        <path d="M572.091,328.101 C554.684,310.694 554.684,282.472 572.091,265.065" fill-opacity="0" stroke="#FFFFFF" stroke-width="33"/>
      </g>
      <path d="M698.381,201.92 C680.974,184.513 680.974,156.291 698.381,138.884" fill-opacity="0" stroke="#FFFFFF" stroke-width="33"/>
      <path d="M571.978,328.211 C589.385,345.618 589.385,373.84 571.978,391.247" fill-opacity="0" stroke="#FFFFFF" stroke-width="33"/>
    </g>
    <g>
      <path d="M331.461,570.325 C314.054,552.918 285.832,552.918 268.425,570.325" fill-opacity="0" stroke="#FFFFFF" stroke-width="33"/>
      <g>
        <path d="M394.497,570.215 C411.904,552.808 411.904,524.586 394.497,507.179" fill-opacity="0" stroke="#FFFFFF" stroke-width="33"/>
        <path d="M457.642,444.034 C440.235,426.627 412.013,426.627 394.606,444.034" fill-opacity="0" stroke="#FFFFFF" stroke-width="33"/>
        <path d="M394.606,444.034 C377.199,461.441 377.199,489.663 394.606,507.07" fill-opacity="0" stroke="#FFFFFF" stroke-width="33"/>
        <path d="M331.461,570.215 C348.868,587.622 377.09,587.622 394.497,570.215" fill-opacity="0" stroke="#FFFFFF" stroke-width="33"/>
      </g>
      <path d="M457.642,443.741 C475.049,461.148 503.271,461.148 520.678,443.741" fill-opacity="0" stroke="#FFFFFF" stroke-width="33"/>
    </g>
  </g>
  <g id="Capa_3">
    <g>
      <path d="M568.865,393.593 C593.482,393.593 613.438,413.549 613.438,438.166 C613.438,462.783 593.482,482.74 568.865,482.74 C544.248,482.74 524.292,462.783 524.292,438.166 L524.294,438.139 L524.825,438.166 C549.148,438.166 568.865,418.21 568.865,393.593 z" fill="#F438D6"/>
      <path d="M568.865,393.593 C593.482,393.593 613.438,413.549 613.438,438.166 C613.438,462.783 593.482,482.74 568.865,482.74 C544.248,482.74 524.292,462.783 524.292,438.166 L524.294,438.139 L524.825,438.166 C549.148,438.166 568.865,418.21 568.865,393.593 z" fill-opacity="0" stroke="#FFFFFF" stroke-width="10"/>
    </g>
    <g>
      <path d="M524.824,349.047 C549.147,349.047 568.864,369.003 568.864,393.62 C543.674,394.028 525.53,413.624 524.292,438.166 C499.382,437.634 481.982,417.643 480.784,393.62 C480.784,369.003 500.501,349.047 524.824,349.047 z" fill="#009CF2"/>
      <path d="M524.824,349.047 C549.147,349.047 568.864,369.003 568.864,393.62 C543.674,394.028 525.53,413.624 524.292,438.166 C499.382,437.634 481.982,417.643 480.784,393.62 C480.784,369.003 500.501,349.047 524.824,349.047 z" fill-opacity="0" stroke="#FFFFFF" stroke-width="10"/>
    </g>
    <text transform="matrix(1, 0, 0, 1, 569.907, 480.022)">
      <tspan x="-24.572" y="1.425" font-family="MyanmarMN-Bold" font-size="100" fill="#FFFFFF">+</tspan>
    </text>
    <text transform="matrix(1, 0, 0, 1, 522.375, 394.516)">
      <tspan x="-17.065" y="17.676" font-family="MyanmarMN-Bold" font-size="100" fill="#FFFFFF">-</tspan>
    </text>
    <g>
      <path d="M706.922,163.321 C682.879,163.321 663.387,143.55 663.387,119.163 C663.387,94.775 682.879,75.005 706.922,75.005 C730.966,75.005 750.458,94.775 750.458,119.163 C750.458,143.55 730.966,163.321 706.922,163.321 z" fill="#D06900"/>
      <path d="M706.922,163.321 C682.879,163.321 663.387,143.55 663.387,119.163 C663.387,94.775 682.879,75.005 706.922,75.005 C730.966,75.005 750.458,94.775 750.458,119.163 C750.458,143.55 730.966,163.321 706.922,163.321 z" fill-opacity="0" stroke="#FFFFFF" stroke-width="10"/>
    </g>
    <g>
      <path d="M248.078,626.995 C224.034,626.995 204.542,607.225 204.542,582.837 C204.542,558.45 224.034,538.679 248.078,538.679 C272.121,538.679 291.613,558.45 291.613,582.837 C291.613,607.225 272.121,626.995 248.078,626.995 z" fill="#D06900"/>
      <path d="M248.078,626.995 C224.034,626.995 204.542,607.225 204.542,582.837 C204.542,558.45 224.034,538.679 248.078,538.679 C272.121,538.679 291.613,558.45 291.613,582.837 C291.613,607.225 272.121,626.995 248.078,626.995 z" fill-opacity="0" stroke="#FFFFFF" stroke-width="10"/>
    </g>
  </g>
</svg>
