<?xml version="1.0" encoding="UTF-8"?>
<!DOCTYPE svg PUBLIC "-//W3C//DTD SVG 1.1//EN" "http://www.w3.org/Graphics/SVG/1.1/DTD/svg11.dtd">
<svg version="1.1" xmlns="http://www.w3.org/2000/svg" xmlns:xlink="http://www.w3.org/1999/xlink" x="0" y="0" width="256" height="256" viewBox="0, 0, 800, 800">
  <g id="Capa_1" opacity="0.508">
    <g>
      <path d="M400,762 C320.03,762 255.2,599.927 255.2,400 C255.2,200.073 320.03,38 400,38 C479.972,38 544.8,200.073 544.8,400 C544.8,599.927 479.972,762 400,762 z" fill-opacity="0" stroke="#93FA67" stroke-width="18"/>
      <path d="M655.972,655.972 C599.426,712.521 438.981,643.759 297.61,502.39 C156.241,361.019 87.479,200.576 144.028,144.028 C200.576,87.479 361.019,156.241 502.39,297.61 C643.759,438.981 712.521,599.424 655.972,655.972 z" fill-opacity="0" stroke="#20FBB3" stroke-width="18"/>
      <path d="M144.028,655.972 C87.479,599.424 156.241,438.981 297.61,297.61 C438.981,156.241 599.424,87.479 655.972,144.028 C712.521,200.576 643.759,361.019 502.39,502.39 C361.019,643.759 200.576,712.521 144.028,655.972 z" fill-opacity="0" stroke="#8EFDFF" stroke-width="18"/>
      <path d="M38,400 C38,320.03 200.073,255.2 400,255.2 C599.927,255.2 762,320.03 762,400 C762,479.97 599.927,544.8 400,544.8 C200.073,544.8 38,479.97 38,400 z" fill-opacity="0" stroke="#60FDFF" stroke-width="18"/>
      <path d="M493.693,749.665 C416.448,770.363 311.879,630.591 260.134,437.477 C208.389,244.363 229.063,71.033 306.307,50.335 C383.554,29.637 488.121,169.409 539.866,362.523 C591.611,555.637 570.939,728.967 493.693,749.665 z" fill-opacity="0" stroke="#D6FB67" stroke-width="18"/>
      <path d="M581,713.501 C511.744,753.486 374.563,645.542 274.6,472.4 C174.636,299.259 149.744,126.484 219,86.499 C288.258,46.513 425.437,154.459 525.401,327.6 C625.364,500.742 650.258,673.515 581,713.501 z" fill-opacity="0" stroke="#FFE967" stroke-width="18"/>
      <path d="M306.307,749.665 C229.063,728.967 208.389,555.637 260.134,362.523 C311.879,169.409 416.448,29.637 493.693,50.335 C570.939,71.033 591.611,244.363 539.866,437.477 C488.121,630.591 383.554,770.363 306.307,749.665 z" fill-opacity="0" stroke="#20FA5B" stroke-width="18"/>
      <path d="M219,713.501 C149.744,673.516 174.636,500.741 274.6,327.6 C374.563,154.458 511.744,46.514 581,86.499 C650.258,126.485 625.364,299.258 525.401,472.4 C425.437,645.541 288.258,753.487 219,713.501 z" fill-opacity="0" stroke="#00EFF2" stroke-width="18"/>
      <path d="M86.499,581 C46.514,511.742 154.458,374.564 327.6,274.599 C500.743,174.636 673.515,149.743 713.501,219 C753.486,288.258 645.542,425.436 472.4,525.401 C299.257,625.364 126.485,650.257 86.499,581 z" fill-opacity="0" stroke="#FFE436" stroke-width="18"/>
      <path d="M50.335,493.692 C29.637,416.446 169.408,311.879 362.523,260.133 C555.638,208.389 728.966,229.061 749.665,306.308 C770.363,383.554 630.592,488.121 437.477,539.867 C244.362,591.611 71.034,570.939 50.335,493.692 z" fill-opacity="0" stroke="#FFAE67" stroke-width="18"/>
      <path d="M713.501,581 C673.517,650.257 500.743,625.364 327.6,525.401 C154.458,425.436 46.514,288.258 86.499,219 C126.485,149.743 299.257,174.636 472.4,274.599 C645.542,374.564 753.486,511.742 713.501,581 z" fill-opacity="0" stroke="#00EC2C" stroke-width="18"/>
      <path d="M749.665,493.692 C728.968,570.938 555.638,591.611 362.523,539.867 C169.408,488.121 29.637,383.554 50.335,306.308 C71.034,229.061 244.362,208.389 437.477,260.133 C630.592,311.879 770.363,416.446 749.665,493.692 z" fill-opacity="0" stroke="#00EFF2" stroke-width="18"/>
    </g>
  </g>
  <g id="Capa_2">
    <g>
      <path d="M342.698,127.814 C342.698,92 306.884,92 306.884,92 C278.233,92 285.395,106.326 271.07,106.326 C256.744,106.326 142.14,106.326 142.14,106.326 C142.14,149.302 185.116,149.302 185.116,149.302 C185.116,177.954 228.093,177.954 228.093,177.954 C228.093,206.605 285.395,206.605 285.395,206.605 C285.395,228.093 357.023,228.093 357.023,228.093 L357.023,177.954 C335.535,163.628 342.698,127.814 342.698,127.814" fill="#FF4437"/>
      <path d="M342.698,127.814 C342.698,92 306.884,92 306.884,92 C278.233,92 285.395,106.326 271.07,106.326 C256.744,106.326 142.14,106.326 142.14,106.326 C142.14,149.302 185.116,149.302 185.116,149.302 C185.116,177.954 228.093,177.954 228.093,177.954 C228.093,206.605 285.395,206.605 285.395,206.605 C285.395,228.093 357.023,228.093 357.023,228.093 L357.023,177.954 C335.535,163.628 342.698,127.814 342.698,127.814" fill-opacity="0" stroke="#EEEEEE" stroke-width="10"/>
    </g>
    <g>
      <path d="M457.302,127.814 C457.302,92 493.116,92 493.116,92 C521.767,92 514.605,106.326 528.93,106.326 C543.256,106.326 657.86,106.326 657.86,106.326 C657.86,149.302 614.884,149.302 614.884,149.302 C614.884,177.954 571.907,177.954 571.907,177.954 C571.907,206.605 514.605,206.605 514.605,206.605 C514.605,228.093 442.977,228.093 442.977,228.093 L442.977,177.954 C464.465,163.628 457.302,127.814 457.302,127.814" fill="#FF4437"/>
      <path d="M457.302,127.814 C457.302,92 493.116,92 493.116,92 C521.767,92 514.605,106.326 528.93,106.326 C543.256,106.326 657.86,106.326 657.86,106.326 C657.86,149.302 614.884,149.302 614.884,149.302 C614.884,177.954 571.907,177.954 571.907,177.954 C571.907,206.605 514.605,206.605 514.605,206.605 C514.605,228.093 442.977,228.093 442.977,228.093 L442.977,177.954 C464.465,163.628 457.302,127.814 457.302,127.814" fill-opacity="0" stroke="#EEEEEE" stroke-width="10"/>
    </g>
    <g>
      <path d="M400,99.163 C423.735,99.163 442.977,118.404 442.977,142.14 C442.849,160.125 431.164,177.414 413.704,182.842 L407.163,686.512 L400,708 L392.837,686.512 L386.296,182.842 C368.597,177.383 357.478,160.141 357.023,142.139 C357.023,118.404 376.265,99.163 400,99.163 z" fill="#FF4437"/>
      <path d="M400,99.163 C423.735,99.163 442.977,118.404 442.977,142.14 C442.849,160.125 431.164,177.414 413.704,182.842 L407.163,686.512 L400,708 L392.837,686.512 L386.296,182.842 C368.597,177.383 357.478,160.141 357.023,142.139 C357.023,118.404 376.265,99.163 400,99.163 z" fill-opacity="0" stroke="#EEEEEE" stroke-width="10"/>
    </g>
    <g>
      <path d="M408.624,573.973 C428.937,577.753 441.133,594.226 442.146,614.3 C441.168,635.933 428.732,650.527 407.574,654.842 L407.595,653.197 C418.535,648.625 426.752,640.035 430.653,628.912 C431.322,613.031 426.376,591.295 408.454,587.073 L408.624,573.973 z" fill="#F37B00"/>
      <path d="M408.624,573.973 C428.937,577.753 441.133,594.226 442.146,614.3 C441.168,635.933 428.732,650.527 407.574,654.842 L407.595,653.197 C418.535,648.625 426.752,640.035 430.653,628.912 C431.322,613.031 426.376,591.295 408.454,587.073 L408.624,573.973 z" fill-opacity="0" stroke="#EEEEEE" stroke-width="10"/>
    </g>
    <g>
      <path d="M410.697,414.371 C442.618,420.848 469.492,443.063 486.139,470.659 C504.49,524.298 462.143,562.41 462.143,562.41 C433.442,584.054 400,585.936 400,585.936 C368.51,587.818 371.349,628.913 371.349,628.912 C374.735,639.255 382.514,647.695 392.393,652.265 L392.421,654.433 C372.467,650.431 360.849,633.97 359.855,614.3 C359.855,591.515 378.327,573.043 401.113,573.043 C439.09,573.043 469.876,542.257 469.876,504.28 C469.016,468.162 444.975,443.275 410.412,436.301 L410.697,414.371 z" fill="#9CCB00"/>
      <path d="M410.697,414.371 C442.618,420.848 469.492,443.063 486.139,470.659 C504.49,524.298 462.143,562.41 462.143,562.41 C433.442,584.054 400,585.936 400,585.936 C368.51,587.818 371.349,628.913 371.349,628.912 C374.735,639.255 382.514,647.695 392.393,652.265 L392.421,654.433 C372.467,650.431 360.849,633.97 359.855,614.3 C359.855,591.515 378.327,573.043 401.113,573.043 C439.09,573.043 469.876,542.257 469.876,504.28 C469.016,468.162 444.975,443.275 410.412,436.301 L410.697,414.371 z" fill-opacity="0" stroke="#EEEEEE" stroke-width="10"/>
    </g>
    <g>
      <path d="M377.289,251.997 C377.289,251.997 366.925,335.513 351.21,320.858 C351.21,320.858 343.717,300.043 334.269,322.804 C333.378,364.766 342.017,404.665 389.28,412.616 L389.569,434.86 C351.352,431.624 321.345,404.657 313.623,367.472 C309.102,345.7 311.646,323.351 316.516,301.885 C322.674,295.319 317.95,286.729 317.95,286.729 C301.201,267.833 377.289,251.997 377.289,251.997 z" fill="#9CCB00"/>
      <path d="M377.289,251.997 C377.289,251.997 366.925,335.513 351.21,320.858 C351.21,320.858 343.717,300.043 334.269,322.804 C333.378,364.766 342.017,404.665 389.28,412.616 L389.569,434.86 C351.352,431.624 321.345,404.657 313.623,367.472 C309.102,345.7 311.646,323.351 316.516,301.885 C322.674,295.319 317.95,286.729 317.95,286.729 C301.201,267.833 377.289,251.997 377.289,251.997 z" fill-opacity="0" stroke="#EEEEEE" stroke-width="10"/>
    </g>
    <g>
      <path d="M424.713,251.997 C424.713,251.997 500.801,267.833 484.052,286.729 C484.052,286.729 479.328,295.319 485.486,301.885 C508.884,400.335 449.472,435.517 402.002,435.517 C364.025,435.517 332.126,466.303 332.126,504.28 C332.298,537.229 357.607,568.922 391.355,572.346 L391.381,574.38 C386.026,575.011 381.507,577.982 377.171,580.91 C363.655,577.154 351.427,570.162 339.858,562.41 C339.859,562.41 297.512,524.298 315.862,470.659 C315.862,470.659 345.196,419.423 395.85,413.727 C449.533,414.586 469.25,380.791 467.732,322.804 C458.284,300.043 450.792,320.858 450.792,320.858 C435.076,335.513 424.713,251.997 424.713,251.997 L424.713,251.997 z" fill="#FF9937"/>
      <path d="M424.713,251.997 C424.713,251.997 500.801,267.833 484.052,286.729 C484.052,286.729 479.328,295.319 485.486,301.885 C508.884,400.335 449.472,435.517 402.002,435.517 C364.025,435.517 332.126,466.303 332.126,504.28 C332.298,537.229 357.607,568.922 391.355,572.346 L391.381,574.38 C386.026,575.011 381.507,577.982 377.171,580.91 C363.655,577.154 351.427,570.162 339.858,562.41 C339.859,562.41 297.512,524.298 315.862,470.659 C315.862,470.659 345.196,419.423 395.85,413.727 C449.533,414.586 469.25,380.791 467.732,322.804 C458.284,300.043 450.792,320.858 450.792,320.858 C435.076,335.513 424.713,251.997 424.713,251.997 L424.713,251.997 z" fill-opacity="0" stroke="#EEEEEE" stroke-width="10"/>
    </g>
  </g>
</svg>
