<?xml version="1.0" encoding="UTF-8"?>
<!DOCTYPE svg PUBLIC "-//W3C//DTD SVG 1.1//EN" "http://www.w3.org/Graphics/SVG/1.1/DTD/svg11.dtd">
<svg version="1.1" xmlns="http://www.w3.org/2000/svg" xmlns:xlink="http://www.w3.org/1999/xlink" x="0" y="0" width="819.2" height="614.4" viewBox="0, 0, 1024, 768">
  <g id="Capa_1" opacity="0.508">
    <g>
      <path d="M512,746 C432.03,746 367.2,583.927 367.2,384 C367.2,184.073 432.03,22 512,22 C591.972,22 656.8,184.073 656.8,384 C656.8,583.927 591.972,746 512,746 z" fill-opacity="0" stroke="#93FA67" stroke-width="18"/>
      <path d="M767.972,639.972 C711.426,696.521 550.981,627.759 409.61,486.39 C268.241,345.019 199.479,184.576 256.028,128.028 C312.576,71.479 473.019,140.241 614.39,281.61 C755.759,422.981 824.521,583.424 767.972,639.972 z" fill-opacity="0" stroke="#20FBB3" stroke-width="18"/>
      <path d="M256.028,639.972 C199.479,583.424 268.241,422.981 409.61,281.61 C550.981,140.241 711.424,71.479 767.972,128.028 C824.521,184.576 755.759,345.019 614.39,486.39 C473.019,627.759 312.576,696.521 256.028,639.972 z" fill-opacity="0" stroke="#8EFDFF" stroke-width="18"/>
      <path d="M150,384 C150,304.03 312.073,239.2 512,239.2 C711.927,239.2 874,304.03 874,384 C874,463.97 711.927,528.8 512,528.8 C312.073,528.8 150,463.97 150,384 z" fill-opacity="0" stroke="#60FDFF" stroke-width="18"/>
      <path d="M605.693,733.665 C528.448,754.363 423.879,614.591 372.134,421.477 C320.389,228.363 341.063,55.033 418.308,34.335 C495.554,13.637 600.121,153.409 651.866,346.523 C703.611,539.637 682.939,712.967 605.693,733.665 z" fill-opacity="0" stroke="#D6FB67" stroke-width="18"/>
      <path d="M693,697.501 C623.744,737.486 486.563,629.542 386.6,456.4 C286.636,283.259 261.744,110.484 331,70.499 C400.258,30.513 537.437,138.459 637.401,311.6 C737.364,484.742 762.258,657.515 693,697.501 z" fill-opacity="0" stroke="#FFE967" stroke-width="18"/>
      <path d="M418.308,733.665 C341.063,712.967 320.389,539.637 372.134,346.523 C423.879,153.409 528.448,13.637 605.693,34.335 C682.939,55.033 703.611,228.363 651.866,421.477 C600.121,614.591 495.554,754.363 418.308,733.665 z" fill-opacity="0" stroke="#20FA5B" stroke-width="18"/>
      <path d="M331,697.501 C261.744,657.516 286.636,484.741 386.6,311.6 C486.563,138.458 623.744,30.514 693,70.499 C762.258,110.485 737.364,283.258 637.401,456.4 C537.437,629.541 400.258,737.487 331,697.501 z" fill-opacity="0" stroke="#00EFF2" stroke-width="18"/>
      <path d="M198.499,565 C158.514,495.742 266.458,358.564 439.6,258.599 C612.742,158.636 785.515,133.743 825.501,203 C865.486,272.258 757.542,409.436 584.4,509.401 C411.258,609.364 238.485,634.257 198.499,565 z" fill-opacity="0" stroke="#FFE436" stroke-width="18"/>
      <path d="M162.335,477.692 C141.637,400.446 281.408,295.879 474.523,244.133 C667.638,192.389 840.966,213.061 861.665,290.308 C882.363,367.554 742.592,472.121 549.477,523.867 C356.362,575.611 183.034,554.939 162.335,477.692 z" fill-opacity="0" stroke="#FFAE67" stroke-width="18"/>
      <path d="M825.501,565 C785.517,634.257 612.742,609.364 439.6,509.401 C266.458,409.436 158.514,272.258 198.499,203 C238.485,133.743 411.258,158.636 584.4,258.599 C757.542,358.564 865.486,495.742 825.501,565 z" fill-opacity="0" stroke="#00EC2C" stroke-width="18"/>
      <path d="M861.665,477.692 C840.968,554.938 667.638,575.611 474.523,523.867 C281.408,472.121 141.637,367.554 162.335,290.308 C183.034,213.061 356.362,192.389 549.477,244.133 C742.592,295.879 882.363,400.446 861.665,477.692 z" fill-opacity="0" stroke="#00EFF2" stroke-width="18"/>
    </g>
  </g>
  <g id="Capa_2">
    <g>
      <path d="M454.698,115.814 C454.698,80 418.884,80 418.884,80 C390.233,80 397.395,94.326 383.07,94.326 C368.744,94.326 254.14,94.326 254.14,94.326 C254.14,137.302 297.116,137.302 297.116,137.302 C297.116,165.954 340.093,165.954 340.093,165.954 C340.093,194.605 397.395,194.605 397.395,194.605 C397.395,216.093 469.023,216.093 469.023,216.093 L469.023,165.954 C447.535,151.628 454.698,115.814 454.698,115.814" fill="#FF4437"/>
      <path d="M454.698,115.814 C454.698,80 418.884,80 418.884,80 C390.233,80 397.395,94.326 383.07,94.326 C368.744,94.326 254.14,94.326 254.14,94.326 C254.14,137.302 297.116,137.302 297.116,137.302 C297.116,165.954 340.093,165.954 340.093,165.954 C340.093,194.605 397.395,194.605 397.395,194.605 C397.395,216.093 469.023,216.093 469.023,216.093 L469.023,165.954 C447.535,151.628 454.698,115.814 454.698,115.814" fill-opacity="0" stroke="#EEEEEE" stroke-width="10"/>
    </g>
    <g>
      <path d="M569.302,115.814 C569.302,80 605.116,80 605.116,80 C633.767,80 626.605,94.326 640.93,94.326 C655.256,94.326 769.86,94.326 769.86,94.326 C769.86,137.302 726.884,137.302 726.884,137.302 C726.884,165.954 683.907,165.954 683.907,165.954 C683.907,194.605 626.605,194.605 626.605,194.605 C626.605,216.093 554.977,216.093 554.977,216.093 L554.977,165.954 C576.465,151.628 569.302,115.814 569.302,115.814" fill="#FF4437"/>
      <path d="M569.302,115.814 C569.302,80 605.116,80 605.116,80 C633.767,80 626.605,94.326 640.93,94.326 C655.256,94.326 769.86,94.326 769.86,94.326 C769.86,137.302 726.884,137.302 726.884,137.302 C726.884,165.954 683.907,165.954 683.907,165.954 C683.907,194.605 626.605,194.605 626.605,194.605 C626.605,216.093 554.977,216.093 554.977,216.093 L554.977,165.954 C576.465,151.628 569.302,115.814 569.302,115.814" fill-opacity="0" stroke="#EEEEEE" stroke-width="10"/>
    </g>
    <g>
      <path d="M512,87.163 C535.735,87.163 554.977,106.404 554.977,130.14 C554.849,148.125 543.164,165.414 525.704,170.842 L519.163,674.512 L512,696 L504.837,674.512 L498.296,170.842 C480.597,165.383 469.478,148.141 469.023,130.139 C469.023,106.404 488.265,87.163 512,87.163 z" fill="#FF4437"/>
      <path d="M512,87.163 C535.735,87.163 554.977,106.404 554.977,130.14 C554.849,148.125 543.164,165.414 525.704,170.842 L519.163,674.512 L512,696 L504.837,674.512 L498.296,170.842 C480.597,165.383 469.478,148.141 469.023,130.139 C469.023,106.404 488.265,87.163 512,87.163 z" fill-opacity="0" stroke="#EEEEEE" stroke-width="10"/>
    </g>
    <g>
      <path d="M520.624,561.973 C540.937,565.753 553.133,582.226 554.146,602.3 C553.168,623.933 540.732,638.527 519.574,642.842 L519.595,641.197 C530.535,636.625 538.752,628.035 542.653,616.912 C543.322,601.031 538.375,579.295 520.454,575.073 L520.624,561.973 z" fill="#F37B00"/>
      <path d="M520.624,561.973 C540.937,565.753 553.133,582.226 554.146,602.3 C553.168,623.933 540.732,638.527 519.574,642.842 L519.595,641.197 C530.535,636.625 538.752,628.035 542.653,616.912 C543.322,601.031 538.375,579.295 520.454,575.073 L520.624,561.973 z" fill-opacity="0" stroke="#EEEEEE" stroke-width="10"/>
    </g>
    <g>
      <path d="M522.697,402.371 C554.618,408.848 581.492,431.063 598.139,458.66 C616.49,512.298 574.143,550.41 574.143,550.41 C545.442,572.054 512,573.936 512,573.936 C480.51,575.818 483.349,616.913 483.349,616.913 C486.735,627.255 494.514,635.695 504.393,640.265 L504.421,642.433 C484.467,638.431 472.849,621.97 471.855,602.3 C471.855,579.515 490.327,561.043 513.113,561.043 C551.09,561.043 581.876,530.257 581.876,492.28 C581.016,456.162 556.975,431.275 522.412,424.301 L522.697,402.371 z" fill="#9CCB00"/>
      <path d="M522.697,402.371 C554.618,408.848 581.492,431.063 598.139,458.66 C616.49,512.298 574.143,550.41 574.143,550.41 C545.442,572.054 512,573.936 512,573.936 C480.51,575.818 483.349,616.913 483.349,616.913 C486.735,627.255 494.514,635.695 504.393,640.265 L504.421,642.433 C484.467,638.431 472.849,621.97 471.855,602.3 C471.855,579.515 490.327,561.043 513.113,561.043 C551.09,561.043 581.876,530.257 581.876,492.28 C581.016,456.162 556.975,431.275 522.412,424.301 L522.697,402.371 z" fill-opacity="0" stroke="#EEEEEE" stroke-width="10"/>
    </g>
    <g>
      <path d="M489.289,239.997 C489.289,239.997 478.925,323.513 463.21,308.858 C463.21,308.858 455.717,288.043 446.269,310.804 C445.378,352.766 454.017,392.665 501.28,400.616 L501.569,422.86 C463.352,419.624 433.345,392.657 425.623,355.472 C421.102,333.7 423.646,311.351 428.516,289.885 C434.674,283.319 429.95,274.729 429.95,274.729 C413.201,255.833 489.289,239.997 489.289,239.997 z" fill="#9CCB00"/>
      <path d="M489.289,239.997 C489.289,239.997 478.925,323.513 463.21,308.858 C463.21,308.858 455.717,288.043 446.269,310.804 C445.378,352.766 454.017,392.665 501.28,400.616 L501.569,422.86 C463.352,419.624 433.345,392.657 425.623,355.472 C421.102,333.7 423.646,311.351 428.516,289.885 C434.674,283.319 429.95,274.729 429.95,274.729 C413.201,255.833 489.289,239.997 489.289,239.997 z" fill-opacity="0" stroke="#EEEEEE" stroke-width="10"/>
    </g>
    <g>
      <path d="M536.713,239.997 C536.713,239.997 612.801,255.833 596.052,274.729 C596.052,274.729 591.328,283.319 597.486,289.885 C620.884,388.335 561.472,423.517 514.002,423.517 C476.025,423.517 444.126,454.303 444.126,492.28 C444.298,525.229 469.607,556.922 503.355,560.346 L503.381,562.38 C498.026,563.011 493.507,565.982 489.171,568.91 C475.655,565.154 463.427,558.162 451.858,550.41 C451.859,550.41 409.512,512.298 427.862,458.66 C427.862,458.66 457.196,407.423 507.85,401.727 C561.533,402.586 581.25,368.791 579.732,310.804 C570.284,288.043 562.792,308.858 562.792,308.858 C547.076,323.513 536.713,239.997 536.713,239.997 L536.713,239.997 z" fill="#FF9937"/>
      <path d="M536.713,239.997 C536.713,239.997 612.801,255.833 596.052,274.729 C596.052,274.729 591.328,283.319 597.486,289.885 C620.884,388.335 561.472,423.517 514.002,423.517 C476.025,423.517 444.126,454.303 444.126,492.28 C444.298,525.229 469.607,556.922 503.355,560.346 L503.381,562.38 C498.026,563.011 493.507,565.982 489.171,568.91 C475.655,565.154 463.427,558.162 451.858,550.41 C451.859,550.41 409.512,512.298 427.862,458.66 C427.862,458.66 457.196,407.423 507.85,401.727 C561.533,402.586 581.25,368.791 579.732,310.804 C570.284,288.043 562.792,308.858 562.792,308.858 C547.076,323.513 536.713,239.997 536.713,239.997 L536.713,239.997 z" fill-opacity="0" stroke="#EEEEEE" stroke-width="10"/>
    </g>
  </g>
</svg>
